<mxfile host="app.diagrams.net" modified="2023-04-11T10:36:47.119Z" agent="Mozilla/5.0 (X11; Linux x86_64) AppleWebKit/537.36 (KHTML, like Gecko) Chrome/107.0.0.0 Safari/537.36" version="21.1.5" etag="0CVgsSNrKst6rH-l3nGH" type="github">
  <diagram name="第 1 页" id="kghZ4OT8Y9hcKVyZSSPD">
    <mxGraphModel>
      <root>
        <mxCell id="0" />
        <mxCell id="1" parent="0" />
      </root>
    </mxGraphModel>
  </diagram>
</mxfile>
